<mxfile host="app.diagrams.net" modified="2023-11-05T07:10:53.963Z" agent="Mozilla/5.0 (Windows NT 10.0; Win64; x64) AppleWebKit/537.36 (KHTML, like Gecko) Chrome/118.0.0.0 Safari/537.36" etag="NcWGcnyJIk_g18rqrKqw" version="22.0.8" type="device">
  <diagram id="C5RBs43oDa-KdzZeNtuy" name="Page-1">
    <mxGraphModel dx="1621" dy="1633" grid="1" gridSize="10" guides="1" tooltips="1" connect="1" arrows="1" fold="1" page="1" pageScale="1" pageWidth="827" pageHeight="1169" math="0" shadow="0">
      <root>
        <mxCell id="WIyWlLk6GJQsqaUBKTNV-0" />
        <mxCell id="WIyWlLk6GJQsqaUBKTNV-1" parent="WIyWlLk6GJQsqaUBKTNV-0" />
        <mxCell id="D3NuRizevuZZHWB4beF3-0" value="User" style="swimlane;fontStyle=1;align=center;verticalAlign=top;childLayout=stackLayout;horizontal=1;startSize=26;horizontalStack=0;resizeParent=1;resizeParentMax=0;resizeLast=0;collapsible=1;marginBottom=0;whiteSpace=wrap;html=1;" parent="WIyWlLk6GJQsqaUBKTNV-1" vertex="1">
          <mxGeometry x="-80" y="-42" width="170" height="652" as="geometry" />
        </mxCell>
        <mxCell id="D3NuRizevuZZHWB4beF3-1" value="-Username: String" style="text;strokeColor=none;fillColor=none;align=left;verticalAlign=top;spacingLeft=4;spacingRight=4;overflow=hidden;rotatable=0;points=[[0,0.5],[1,0.5]];portConstraint=eastwest;whiteSpace=wrap;html=1;" parent="D3NuRizevuZZHWB4beF3-0" vertex="1">
          <mxGeometry y="26" width="170" height="26" as="geometry" />
        </mxCell>
        <mxCell id="D3NuRizevuZZHWB4beF3-2" value="-Password: String" style="text;strokeColor=none;fillColor=none;align=left;verticalAlign=top;spacingLeft=4;spacingRight=4;overflow=hidden;rotatable=0;points=[[0,0.5],[1,0.5]];portConstraint=eastwest;whiteSpace=wrap;html=1;" parent="D3NuRizevuZZHWB4beF3-0" vertex="1">
          <mxGeometry y="52" width="170" height="26" as="geometry" />
        </mxCell>
        <mxCell id="D3NuRizevuZZHWB4beF3-3" value="-Phone:String" style="text;strokeColor=none;fillColor=none;align=left;verticalAlign=top;spacingLeft=4;spacingRight=4;overflow=hidden;rotatable=0;points=[[0,0.5],[1,0.5]];portConstraint=eastwest;whiteSpace=wrap;html=1;" parent="D3NuRizevuZZHWB4beF3-0" vertex="1">
          <mxGeometry y="78" width="170" height="26" as="geometry" />
        </mxCell>
        <mxCell id="D3NuRizevuZZHWB4beF3-4" value="-PAN:String" style="text;strokeColor=none;fillColor=none;align=left;verticalAlign=top;spacingLeft=4;spacingRight=4;overflow=hidden;rotatable=0;points=[[0,0.5],[1,0.5]];portConstraint=eastwest;whiteSpace=wrap;html=1;" parent="D3NuRizevuZZHWB4beF3-0" vertex="1">
          <mxGeometry y="104" width="170" height="26" as="geometry" />
        </mxCell>
        <mxCell id="D3NuRizevuZZHWB4beF3-5" value="-Email:String" style="text;strokeColor=none;fillColor=none;align=left;verticalAlign=top;spacingLeft=4;spacingRight=4;overflow=hidden;rotatable=0;points=[[0,0.5],[1,0.5]];portConstraint=eastwest;whiteSpace=wrap;html=1;" parent="D3NuRizevuZZHWB4beF3-0" vertex="1">
          <mxGeometry y="130" width="170" height="26" as="geometry" />
        </mxCell>
        <mxCell id="D3NuRizevuZZHWB4beF3-6" value="-Adhaar_no:String" style="text;strokeColor=none;fillColor=none;align=left;verticalAlign=top;spacingLeft=4;spacingRight=4;overflow=hidden;rotatable=0;points=[[0,0.5],[1,0.5]];portConstraint=eastwest;whiteSpace=wrap;html=1;" parent="D3NuRizevuZZHWB4beF3-0" vertex="1">
          <mxGeometry y="156" width="170" height="26" as="geometry" />
        </mxCell>
        <mxCell id="D3NuRizevuZZHWB4beF3-7" value="-IFSC:String" style="text;strokeColor=none;fillColor=none;align=left;verticalAlign=top;spacingLeft=4;spacingRight=4;overflow=hidden;rotatable=0;points=[[0,0.5],[1,0.5]];portConstraint=eastwest;whiteSpace=wrap;html=1;" parent="D3NuRizevuZZHWB4beF3-0" vertex="1">
          <mxGeometry y="182" width="170" height="26" as="geometry" />
        </mxCell>
        <mxCell id="D3NuRizevuZZHWB4beF3-8" value="-Acc_no:int" style="text;strokeColor=none;fillColor=none;align=left;verticalAlign=top;spacingLeft=4;spacingRight=4;overflow=hidden;rotatable=0;points=[[0,0.5],[1,0.5]];portConstraint=eastwest;whiteSpace=wrap;html=1;" parent="D3NuRizevuZZHWB4beF3-0" vertex="1">
          <mxGeometry y="208" width="170" height="26" as="geometry" />
        </mxCell>
        <mxCell id="D3NuRizevuZZHWB4beF3-9" value="-DOB:String" style="text;strokeColor=none;fillColor=none;align=left;verticalAlign=top;spacingLeft=4;spacingRight=4;overflow=hidden;rotatable=0;points=[[0,0.5],[1,0.5]];portConstraint=eastwest;whiteSpace=wrap;html=1;" parent="D3NuRizevuZZHWB4beF3-0" vertex="1">
          <mxGeometry y="234" width="170" height="26" as="geometry" />
        </mxCell>
        <mxCell id="D3NuRizevuZZHWB4beF3-10" value="-MICR:String" style="text;strokeColor=none;fillColor=none;align=left;verticalAlign=top;spacingLeft=4;spacingRight=4;overflow=hidden;rotatable=0;points=[[0,0.5],[1,0.5]];portConstraint=eastwest;whiteSpace=wrap;html=1;" parent="D3NuRizevuZZHWB4beF3-0" vertex="1">
          <mxGeometry y="260" width="170" height="26" as="geometry" />
        </mxCell>
        <mxCell id="D3NuRizevuZZHWB4beF3-11" value="-Category:String" style="text;strokeColor=none;fillColor=none;align=left;verticalAlign=top;spacingLeft=4;spacingRight=4;overflow=hidden;rotatable=0;points=[[0,0.5],[1,0.5]];portConstraint=eastwest;whiteSpace=wrap;html=1;" parent="D3NuRizevuZZHWB4beF3-0" vertex="1">
          <mxGeometry y="286" width="170" height="26" as="geometry" />
        </mxCell>
        <mxCell id="D3NuRizevuZZHWB4beF3-12" value="-stocksOwned: Map&amp;lt;Stock, Integer&amp;gt;" style="text;strokeColor=none;fillColor=none;align=left;verticalAlign=top;spacingLeft=4;spacingRight=4;overflow=hidden;rotatable=0;points=[[0,0.5],[1,0.5]];portConstraint=eastwest;whiteSpace=wrap;html=1;" parent="D3NuRizevuZZHWB4beF3-0" vertex="1">
          <mxGeometry y="312" width="170" height="44" as="geometry" />
        </mxCell>
        <mxCell id="D3NuRizevuZZHWB4beF3-13" value="" style="line;strokeWidth=1;fillColor=none;align=left;verticalAlign=middle;spacingTop=-1;spacingLeft=3;spacingRight=3;rotatable=0;labelPosition=right;points=[];portConstraint=eastwest;strokeColor=inherit;" parent="D3NuRizevuZZHWB4beF3-0" vertex="1">
          <mxGeometry y="356" width="170" height="8" as="geometry" />
        </mxCell>
        <mxCell id="D3NuRizevuZZHWB4beF3-14" value="+ setData(): void&lt;br&gt;" style="text;strokeColor=none;fillColor=none;align=left;verticalAlign=top;spacingLeft=4;spacingRight=4;overflow=hidden;rotatable=0;points=[[0,0.5],[1,0.5]];portConstraint=eastwest;whiteSpace=wrap;html=1;" parent="D3NuRizevuZZHWB4beF3-0" vertex="1">
          <mxGeometry y="364" width="170" height="26" as="geometry" />
        </mxCell>
        <mxCell id="D3NuRizevuZZHWB4beF3-15" value="+ getData(): User" style="text;strokeColor=none;fillColor=none;align=left;verticalAlign=top;spacingLeft=4;spacingRight=4;overflow=hidden;rotatable=0;points=[[0,0.5],[1,0.5]];portConstraint=eastwest;whiteSpace=wrap;html=1;" parent="D3NuRizevuZZHWB4beF3-0" vertex="1">
          <mxGeometry y="390" width="170" height="26" as="geometry" />
        </mxCell>
        <mxCell id="D3NuRizevuZZHWB4beF3-16" value="+ register(): void" style="text;strokeColor=none;fillColor=none;align=left;verticalAlign=top;spacingLeft=4;spacingRight=4;overflow=hidden;rotatable=0;points=[[0,0.5],[1,0.5]];portConstraint=eastwest;whiteSpace=wrap;html=1;" parent="D3NuRizevuZZHWB4beF3-0" vertex="1">
          <mxGeometry y="416" width="170" height="26" as="geometry" />
        </mxCell>
        <mxCell id="D3NuRizevuZZHWB4beF3-17" value="+ unregister(): void" style="text;strokeColor=none;fillColor=none;align=left;verticalAlign=top;spacingLeft=4;spacingRight=4;overflow=hidden;rotatable=0;points=[[0,0.5],[1,0.5]];portConstraint=eastwest;whiteSpace=wrap;html=1;" parent="D3NuRizevuZZHWB4beF3-0" vertex="1">
          <mxGeometry y="442" width="170" height="26" as="geometry" />
        </mxCell>
        <mxCell id="D3NuRizevuZZHWB4beF3-18" value="+ buyStock(): void" style="text;strokeColor=none;fillColor=none;align=left;verticalAlign=top;spacingLeft=4;spacingRight=4;overflow=hidden;rotatable=0;points=[[0,0.5],[1,0.5]];portConstraint=eastwest;whiteSpace=wrap;html=1;" parent="D3NuRizevuZZHWB4beF3-0" vertex="1">
          <mxGeometry y="468" width="170" height="26" as="geometry" />
        </mxCell>
        <mxCell id="D3NuRizevuZZHWB4beF3-19" value="+ sellStock(): void" style="text;strokeColor=none;fillColor=none;align=left;verticalAlign=top;spacingLeft=4;spacingRight=4;overflow=hidden;rotatable=0;points=[[0,0.5],[1,0.5]];portConstraint=eastwest;whiteSpace=wrap;html=1;" parent="D3NuRizevuZZHWB4beF3-0" vertex="1">
          <mxGeometry y="494" width="170" height="26" as="geometry" />
        </mxCell>
        <mxCell id="D3NuRizevuZZHWB4beF3-20" value="+ resetPassword(): void" style="text;strokeColor=none;fillColor=none;align=left;verticalAlign=top;spacingLeft=4;spacingRight=4;overflow=hidden;rotatable=0;points=[[0,0.5],[1,0.5]];portConstraint=eastwest;whiteSpace=wrap;html=1;" parent="D3NuRizevuZZHWB4beF3-0" vertex="1">
          <mxGeometry y="520" width="170" height="26" as="geometry" />
        </mxCell>
        <mxCell id="D3NuRizevuZZHWB4beF3-21" value="+queryBrokerageCharges(): void" style="text;strokeColor=none;fillColor=none;align=left;verticalAlign=top;spacingLeft=4;spacingRight=4;overflow=hidden;rotatable=0;points=[[0,0.5],[1,0.5]];portConstraint=eastwest;whiteSpace=wrap;html=1;" parent="D3NuRizevuZZHWB4beF3-0" vertex="1">
          <mxGeometry y="546" width="170" height="42" as="geometry" />
        </mxCell>
        <mxCell id="D3NuRizevuZZHWB4beF3-22" value="+getTransactioninfo(): void" style="text;strokeColor=none;fillColor=none;align=left;verticalAlign=top;spacingLeft=4;spacingRight=4;overflow=hidden;rotatable=0;points=[[0,0.5],[1,0.5]];portConstraint=eastwest;whiteSpace=wrap;html=1;" parent="D3NuRizevuZZHWB4beF3-0" vertex="1">
          <mxGeometry y="588" width="170" height="32" as="geometry" />
        </mxCell>
        <mxCell id="D3NuRizevuZZHWB4beF3-23" value="+searchstock(): void" style="text;strokeColor=none;fillColor=none;align=left;verticalAlign=top;spacingLeft=4;spacingRight=4;overflow=hidden;rotatable=0;points=[[0,0.5],[1,0.5]];portConstraint=eastwest;whiteSpace=wrap;html=1;" parent="D3NuRizevuZZHWB4beF3-0" vertex="1">
          <mxGeometry y="620" width="170" height="32" as="geometry" />
        </mxCell>
        <mxCell id="D3NuRizevuZZHWB4beF3-25" value="Stockbroker" style="swimlane;fontStyle=1;align=center;verticalAlign=top;childLayout=stackLayout;horizontal=1;startSize=26;horizontalStack=0;resizeParent=1;resizeParentMax=0;resizeLast=0;collapsible=1;marginBottom=0;whiteSpace=wrap;html=1;" parent="WIyWlLk6GJQsqaUBKTNV-1" vertex="1">
          <mxGeometry x="254" y="310" width="160" height="332" as="geometry" />
        </mxCell>
        <mxCell id="D3NuRizevuZZHWB4beF3-26" value="- usersDB: Set&amp;lt;User&amp;gt;" style="text;strokeColor=none;fillColor=none;align=left;verticalAlign=top;spacingLeft=4;spacingRight=4;overflow=hidden;rotatable=0;points=[[0,0.5],[1,0.5]];portConstraint=eastwest;whiteSpace=wrap;html=1;" parent="D3NuRizevuZZHWB4beF3-25" vertex="1">
          <mxGeometry y="26" width="160" height="26" as="geometry" />
        </mxCell>
        <mxCell id="D3NuRizevuZZHWB4beF3-27" value="- stocksList: Set&amp;lt;Stock&amp;gt;" style="text;strokeColor=none;fillColor=none;align=left;verticalAlign=top;spacingLeft=4;spacingRight=4;overflow=hidden;rotatable=0;points=[[0,0.5],[1,0.5]];portConstraint=eastwest;whiteSpace=wrap;html=1;" parent="D3NuRizevuZZHWB4beF3-25" vertex="1">
          <mxGeometry y="52" width="160" height="28" as="geometry" />
        </mxCell>
        <mxCell id="D3NuRizevuZZHWB4beF3-32" value="" style="line;strokeWidth=1;fillColor=none;align=left;verticalAlign=middle;spacingTop=-1;spacingLeft=3;spacingRight=3;rotatable=0;labelPosition=right;points=[];portConstraint=eastwest;strokeColor=inherit;" parent="D3NuRizevuZZHWB4beF3-25" vertex="1">
          <mxGeometry y="80" width="160" height="8" as="geometry" />
        </mxCell>
        <mxCell id="D3NuRizevuZZHWB4beF3-33" value="+ reg_users(): void" style="text;strokeColor=none;fillColor=none;align=left;verticalAlign=top;spacingLeft=4;spacingRight=4;overflow=hidden;rotatable=0;points=[[0,0.5],[1,0.5]];portConstraint=eastwest;whiteSpace=wrap;html=1;" parent="D3NuRizevuZZHWB4beF3-25" vertex="1">
          <mxGeometry y="88" width="160" height="26" as="geometry" />
        </mxCell>
        <mxCell id="D3NuRizevuZZHWB4beF3-34" value="+ unreg_users(): void" style="text;strokeColor=none;fillColor=none;align=left;verticalAlign=top;spacingLeft=4;spacingRight=4;overflow=hidden;rotatable=0;points=[[0,0.5],[1,0.5]];portConstraint=eastwest;whiteSpace=wrap;html=1;" parent="D3NuRizevuZZHWB4beF3-25" vertex="1">
          <mxGeometry y="114" width="160" height="26" as="geometry" />
        </mxCell>
        <mxCell id="D3NuRizevuZZHWB4beF3-35" value="+ addStock():void" style="text;strokeColor=none;fillColor=none;align=left;verticalAlign=top;spacingLeft=4;spacingRight=4;overflow=hidden;rotatable=0;points=[[0,0.5],[1,0.5]];portConstraint=eastwest;whiteSpace=wrap;html=1;" parent="D3NuRizevuZZHWB4beF3-25" vertex="1">
          <mxGeometry y="140" width="160" height="26" as="geometry" />
        </mxCell>
        <mxCell id="D3NuRizevuZZHWB4beF3-36" value="+ removeStock():void" style="text;strokeColor=none;fillColor=none;align=left;verticalAlign=top;spacingLeft=4;spacingRight=4;overflow=hidden;rotatable=0;points=[[0,0.5],[1,0.5]];portConstraint=eastwest;whiteSpace=wrap;html=1;" parent="D3NuRizevuZZHWB4beF3-25" vertex="1">
          <mxGeometry y="166" width="160" height="26" as="geometry" />
        </mxCell>
        <mxCell id="D3NuRizevuZZHWB4beF3-44" value="+ getBrokerage():double" style="text;strokeColor=none;fillColor=none;align=left;verticalAlign=top;spacingLeft=4;spacingRight=4;overflow=hidden;rotatable=0;points=[[0,0.5],[1,0.5]];portConstraint=eastwest;whiteSpace=wrap;html=1;" parent="D3NuRizevuZZHWB4beF3-25" vertex="1">
          <mxGeometry y="192" width="160" height="26" as="geometry" />
        </mxCell>
        <mxCell id="D3NuRizevuZZHWB4beF3-37" value="+ placeOrder():int" style="text;strokeColor=none;fillColor=none;align=left;verticalAlign=top;spacingLeft=4;spacingRight=4;overflow=hidden;rotatable=0;points=[[0,0.5],[1,0.5]];portConstraint=eastwest;whiteSpace=wrap;html=1;" parent="D3NuRizevuZZHWB4beF3-25" vertex="1">
          <mxGeometry y="218" width="160" height="26" as="geometry" />
        </mxCell>
        <mxCell id="D3NuRizevuZZHWB4beF3-61" value="+getTransaction():&lt;br&gt;AccountStatement" style="text;strokeColor=none;fillColor=none;align=left;verticalAlign=top;spacingLeft=4;spacingRight=4;overflow=hidden;rotatable=0;points=[[0,0.5],[1,0.5]];portConstraint=eastwest;whiteSpace=wrap;html=1;" parent="D3NuRizevuZZHWB4beF3-25" vertex="1">
          <mxGeometry y="244" width="160" height="36" as="geometry" />
        </mxCell>
        <mxCell id="D3NuRizevuZZHWB4beF3-62" value="+ getStockInfo():Stock" style="text;strokeColor=none;fillColor=none;align=left;verticalAlign=top;spacingLeft=4;spacingRight=4;overflow=hidden;rotatable=0;points=[[0,0.5],[1,0.5]];portConstraint=eastwest;whiteSpace=wrap;html=1;" parent="D3NuRizevuZZHWB4beF3-25" vertex="1">
          <mxGeometry y="280" width="160" height="26" as="geometry" />
        </mxCell>
        <mxCell id="D3NuRizevuZZHWB4beF3-60" value="+ setNewpasswrd():bool" style="text;strokeColor=none;fillColor=none;align=left;verticalAlign=top;spacingLeft=4;spacingRight=4;overflow=hidden;rotatable=0;points=[[0,0.5],[1,0.5]];portConstraint=eastwest;whiteSpace=wrap;html=1;" parent="D3NuRizevuZZHWB4beF3-25" vertex="1">
          <mxGeometry y="306" width="160" height="26" as="geometry" />
        </mxCell>
        <mxCell id="D3NuRizevuZZHWB4beF3-42" value="Uses" style="endArrow=open;endSize=12;dashed=1;html=1;rounded=0;" parent="WIyWlLk6GJQsqaUBKTNV-1" edge="1">
          <mxGeometry width="160" relative="1" as="geometry">
            <mxPoint x="90" y="440" as="sourcePoint" />
            <mxPoint x="250" y="440" as="targetPoint" />
          </mxGeometry>
        </mxCell>
        <mxCell id="D3NuRizevuZZHWB4beF3-50" value="Stock" style="swimlane;fontStyle=1;align=center;verticalAlign=top;childLayout=stackLayout;horizontal=1;startSize=26;horizontalStack=0;resizeParent=1;resizeParentMax=0;resizeLast=0;collapsible=1;marginBottom=0;whiteSpace=wrap;html=1;" parent="WIyWlLk6GJQsqaUBKTNV-1" vertex="1">
          <mxGeometry x="240" y="-42" width="160" height="268" as="geometry" />
        </mxCell>
        <mxCell id="D3NuRizevuZZHWB4beF3-51" value="- symbol: String" style="text;strokeColor=none;fillColor=none;align=left;verticalAlign=top;spacingLeft=4;spacingRight=4;overflow=hidden;rotatable=0;points=[[0,0.5],[1,0.5]];portConstraint=eastwest;whiteSpace=wrap;html=1;" parent="D3NuRizevuZZHWB4beF3-50" vertex="1">
          <mxGeometry y="26" width="160" height="26" as="geometry" />
        </mxCell>
        <mxCell id="D3NuRizevuZZHWB4beF3-52" value="- price: double" style="text;strokeColor=none;fillColor=none;align=left;verticalAlign=top;spacingLeft=4;spacingRight=4;overflow=hidden;rotatable=0;points=[[0,0.5],[1,0.5]];portConstraint=eastwest;whiteSpace=wrap;html=1;" parent="D3NuRizevuZZHWB4beF3-50" vertex="1">
          <mxGeometry y="52" width="160" height="26" as="geometry" />
        </mxCell>
        <mxCell id="D3NuRizevuZZHWB4beF3-53" value="- brokerageCharge: double" style="text;strokeColor=none;fillColor=none;align=left;verticalAlign=top;spacingLeft=4;spacingRight=4;overflow=hidden;rotatable=0;points=[[0,0.5],[1,0.5]];portConstraint=eastwest;whiteSpace=wrap;html=1;" parent="D3NuRizevuZZHWB4beF3-50" vertex="1">
          <mxGeometry y="78" width="160" height="26" as="geometry" />
        </mxCell>
        <mxCell id="D3NuRizevuZZHWB4beF3-54" value="- exhange: String" style="text;strokeColor=none;fillColor=none;align=left;verticalAlign=top;spacingLeft=4;spacingRight=4;overflow=hidden;rotatable=0;points=[[0,0.5],[1,0.5]];portConstraint=eastwest;whiteSpace=wrap;html=1;" parent="D3NuRizevuZZHWB4beF3-50" vertex="1">
          <mxGeometry y="104" width="160" height="26" as="geometry" />
        </mxCell>
        <mxCell id="p17duBgMeD1hi4Uvc1wS-5" value="- position: String" style="text;strokeColor=none;fillColor=none;align=left;verticalAlign=top;spacingLeft=4;spacingRight=4;overflow=hidden;rotatable=0;points=[[0,0.5],[1,0.5]];portConstraint=eastwest;whiteSpace=wrap;html=1;" parent="D3NuRizevuZZHWB4beF3-50" vertex="1">
          <mxGeometry y="130" width="160" height="26" as="geometry" />
        </mxCell>
        <mxCell id="D3NuRizevuZZHWB4beF3-55" value="- quantity: int" style="text;strokeColor=none;fillColor=none;align=left;verticalAlign=top;spacingLeft=4;spacingRight=4;overflow=hidden;rotatable=0;points=[[0,0.5],[1,0.5]];portConstraint=eastwest;whiteSpace=wrap;html=1;" parent="D3NuRizevuZZHWB4beF3-50" vertex="1">
          <mxGeometry y="156" width="160" height="26" as="geometry" />
        </mxCell>
        <mxCell id="D3NuRizevuZZHWB4beF3-56" value="" style="line;strokeWidth=1;fillColor=none;align=left;verticalAlign=middle;spacingTop=-1;spacingLeft=3;spacingRight=3;rotatable=0;labelPosition=right;points=[];portConstraint=eastwest;strokeColor=inherit;" parent="D3NuRizevuZZHWB4beF3-50" vertex="1">
          <mxGeometry y="182" width="160" height="8" as="geometry" />
        </mxCell>
        <mxCell id="D3NuRizevuZZHWB4beF3-57" value="+ setData(): void" style="text;strokeColor=none;fillColor=none;align=left;verticalAlign=top;spacingLeft=4;spacingRight=4;overflow=hidden;rotatable=0;points=[[0,0.5],[1,0.5]];portConstraint=eastwest;whiteSpace=wrap;html=1;" parent="D3NuRizevuZZHWB4beF3-50" vertex="1">
          <mxGeometry y="190" width="160" height="26" as="geometry" />
        </mxCell>
        <mxCell id="D3NuRizevuZZHWB4beF3-58" value="+ getData(): Stock" style="text;strokeColor=none;fillColor=none;align=left;verticalAlign=top;spacingLeft=4;spacingRight=4;overflow=hidden;rotatable=0;points=[[0,0.5],[1,0.5]];portConstraint=eastwest;whiteSpace=wrap;html=1;" parent="D3NuRizevuZZHWB4beF3-50" vertex="1">
          <mxGeometry y="216" width="160" height="26" as="geometry" />
        </mxCell>
        <mxCell id="D3NuRizevuZZHWB4beF3-137" value="+renderGraph(): void" style="text;strokeColor=none;fillColor=none;align=left;verticalAlign=top;spacingLeft=4;spacingRight=4;overflow=hidden;rotatable=0;points=[[0,0.5],[1,0.5]];portConstraint=eastwest;whiteSpace=wrap;html=1;" parent="D3NuRizevuZZHWB4beF3-50" vertex="1">
          <mxGeometry y="242" width="160" height="26" as="geometry" />
        </mxCell>
        <mxCell id="D3NuRizevuZZHWB4beF3-63" value="&lt;b&gt;Order&lt;/b&gt;" style="swimlane;fontStyle=0;childLayout=stackLayout;horizontal=1;startSize=26;fillColor=none;horizontalStack=0;resizeParent=1;resizeParentMax=0;resizeLast=0;collapsible=1;marginBottom=0;whiteSpace=wrap;html=1;" parent="WIyWlLk6GJQsqaUBKTNV-1" vertex="1">
          <mxGeometry x="580" y="516" width="140" height="138" as="geometry" />
        </mxCell>
        <mxCell id="D3NuRizevuZZHWB4beF3-66" value="+ position:String&amp;nbsp;" style="text;strokeColor=none;fillColor=none;align=left;verticalAlign=top;spacingLeft=4;spacingRight=4;overflow=hidden;rotatable=0;points=[[0,0.5],[1,0.5]];portConstraint=eastwest;whiteSpace=wrap;html=1;" parent="D3NuRizevuZZHWB4beF3-63" vertex="1">
          <mxGeometry y="26" width="140" height="26" as="geometry" />
        </mxCell>
        <mxCell id="D3NuRizevuZZHWB4beF3-65" value="" style="line;strokeWidth=1;fillColor=none;align=left;verticalAlign=middle;spacingTop=-1;spacingLeft=3;spacingRight=3;rotatable=0;labelPosition=right;points=[];portConstraint=eastwest;strokeColor=inherit;" parent="D3NuRizevuZZHWB4beF3-63" vertex="1">
          <mxGeometry y="52" width="140" height="8" as="geometry" />
        </mxCell>
        <mxCell id="ovJjnsN1KisoKgRE-vfu-0" value="+ placeOrder():int&amp;nbsp;" style="text;strokeColor=none;fillColor=none;align=left;verticalAlign=top;spacingLeft=4;spacingRight=4;overflow=hidden;rotatable=0;points=[[0,0.5],[1,0.5]];portConstraint=eastwest;whiteSpace=wrap;html=1;" vertex="1" parent="D3NuRizevuZZHWB4beF3-63">
          <mxGeometry y="60" width="140" height="26" as="geometry" />
        </mxCell>
        <mxCell id="D3NuRizevuZZHWB4beF3-67" value="+ setStatus():void" style="text;strokeColor=none;fillColor=none;align=left;verticalAlign=top;spacingLeft=4;spacingRight=4;overflow=hidden;rotatable=0;points=[[0,0.5],[1,0.5]];portConstraint=eastwest;whiteSpace=wrap;html=1;" parent="D3NuRizevuZZHWB4beF3-63" vertex="1">
          <mxGeometry y="86" width="140" height="26" as="geometry" />
        </mxCell>
        <mxCell id="D3NuRizevuZZHWB4beF3-68" value="+ getStatus():String" style="text;strokeColor=none;fillColor=none;align=left;verticalAlign=top;spacingLeft=4;spacingRight=4;overflow=hidden;rotatable=0;points=[[0,0.5],[1,0.5]];portConstraint=eastwest;whiteSpace=wrap;html=1;" parent="D3NuRizevuZZHWB4beF3-63" vertex="1">
          <mxGeometry y="112" width="140" height="26" as="geometry" />
        </mxCell>
        <mxCell id="D3NuRizevuZZHWB4beF3-73" value="&lt;b&gt;Authentication&lt;/b&gt;" style="swimlane;fontStyle=0;childLayout=stackLayout;horizontal=1;startSize=26;fillColor=none;horizontalStack=0;resizeParent=1;resizeParentMax=0;resizeLast=0;collapsible=1;marginBottom=0;whiteSpace=wrap;html=1;" parent="WIyWlLk6GJQsqaUBKTNV-1" vertex="1">
          <mxGeometry x="580" y="280" width="140" height="202" as="geometry" />
        </mxCell>
        <mxCell id="D3NuRizevuZZHWB4beF3-74" value="+ otpAuth(): bool" style="text;strokeColor=none;fillColor=none;align=left;verticalAlign=top;spacingLeft=4;spacingRight=4;overflow=hidden;rotatable=0;points=[[0,0.5],[1,0.5]];portConstraint=eastwest;whiteSpace=wrap;html=1;" parent="D3NuRizevuZZHWB4beF3-73" vertex="1">
          <mxGeometry y="26" width="140" height="26" as="geometry" />
        </mxCell>
        <mxCell id="D3NuRizevuZZHWB4beF3-75" value="+adhaarAuth():bool" style="text;strokeColor=none;fillColor=none;align=left;verticalAlign=top;spacingLeft=4;spacingRight=4;overflow=hidden;rotatable=0;points=[[0,0.5],[1,0.5]];portConstraint=eastwest;whiteSpace=wrap;html=1;" parent="D3NuRizevuZZHWB4beF3-73" vertex="1">
          <mxGeometry y="52" width="140" height="30" as="geometry" />
        </mxCell>
        <mxCell id="D3NuRizevuZZHWB4beF3-76" value="+panAuth():bool" style="text;strokeColor=none;fillColor=none;align=left;verticalAlign=top;spacingLeft=4;spacingRight=4;overflow=hidden;rotatable=0;points=[[0,0.5],[1,0.5]];portConstraint=eastwest;whiteSpace=wrap;html=1;" parent="D3NuRizevuZZHWB4beF3-73" vertex="1">
          <mxGeometry y="82" width="140" height="30" as="geometry" />
        </mxCell>
        <mxCell id="D3NuRizevuZZHWB4beF3-78" value="+bankAuth():bool" style="text;strokeColor=none;fillColor=none;align=left;verticalAlign=top;spacingLeft=4;spacingRight=4;overflow=hidden;rotatable=0;points=[[0,0.5],[1,0.5]];portConstraint=eastwest;whiteSpace=wrap;html=1;" parent="D3NuRizevuZZHWB4beF3-73" vertex="1">
          <mxGeometry y="112" width="140" height="30" as="geometry" />
        </mxCell>
        <mxCell id="D3NuRizevuZZHWB4beF3-81" value="+adminAuth():bool" style="text;strokeColor=none;fillColor=none;align=left;verticalAlign=top;spacingLeft=4;spacingRight=4;overflow=hidden;rotatable=0;points=[[0,0.5],[1,0.5]];portConstraint=eastwest;whiteSpace=wrap;html=1;" parent="D3NuRizevuZZHWB4beF3-73" vertex="1">
          <mxGeometry y="142" width="140" height="30" as="geometry" />
        </mxCell>
        <mxCell id="p17duBgMeD1hi4Uvc1wS-0" value="+passwordAuth():String" style="text;strokeColor=none;fillColor=none;align=left;verticalAlign=top;spacingLeft=4;spacingRight=4;overflow=hidden;rotatable=0;points=[[0,0.5],[1,0.5]];portConstraint=eastwest;whiteSpace=wrap;html=1;" parent="D3NuRizevuZZHWB4beF3-73" vertex="1">
          <mxGeometry y="172" width="140" height="30" as="geometry" />
        </mxCell>
        <mxCell id="D3NuRizevuZZHWB4beF3-80" value="Authenticates" style="endArrow=open;endSize=12;dashed=1;html=1;rounded=0;entryX=-0.033;entryY=0.867;entryDx=0;entryDy=0;entryPerimeter=0;" parent="WIyWlLk6GJQsqaUBKTNV-1" target="D3NuRizevuZZHWB4beF3-75" edge="1">
          <mxGeometry width="160" relative="1" as="geometry">
            <mxPoint x="420" y="440" as="sourcePoint" />
            <mxPoint x="580" y="440" as="targetPoint" />
          </mxGeometry>
        </mxCell>
        <mxCell id="D3NuRizevuZZHWB4beF3-83" value="places" style="endArrow=open;endSize=12;dashed=1;html=1;rounded=0;entryX=-0.021;entryY=0.906;entryDx=0;entryDy=0;entryPerimeter=0;" parent="WIyWlLk6GJQsqaUBKTNV-1" target="D3NuRizevuZZHWB4beF3-66" edge="1">
          <mxGeometry width="160" relative="1" as="geometry">
            <mxPoint x="424" y="516" as="sourcePoint" />
            <mxPoint x="585" y="398" as="targetPoint" />
          </mxGeometry>
        </mxCell>
        <mxCell id="D3NuRizevuZZHWB4beF3-84" value="&lt;b&gt;OrderAuth&lt;/b&gt;" style="swimlane;fontStyle=0;childLayout=stackLayout;horizontal=1;startSize=26;fillColor=none;horizontalStack=0;resizeParent=1;resizeParentMax=0;resizeLast=0;collapsible=1;marginBottom=0;whiteSpace=wrap;html=1;" parent="WIyWlLk6GJQsqaUBKTNV-1" vertex="1">
          <mxGeometry x="310" y="780" width="140" height="52" as="geometry" />
        </mxCell>
        <mxCell id="D3NuRizevuZZHWB4beF3-85" value="+ orderValidator():bool&amp;nbsp;" style="text;strokeColor=none;fillColor=none;align=left;verticalAlign=top;spacingLeft=4;spacingRight=4;overflow=hidden;rotatable=0;points=[[0,0.5],[1,0.5]];portConstraint=eastwest;whiteSpace=wrap;html=1;" parent="D3NuRizevuZZHWB4beF3-84" vertex="1">
          <mxGeometry y="26" width="140" height="26" as="geometry" />
        </mxCell>
        <mxCell id="D3NuRizevuZZHWB4beF3-86" value="&lt;b&gt;ExchangeConnection&lt;/b&gt;" style="swimlane;fontStyle=0;childLayout=stackLayout;horizontal=1;startSize=26;fillColor=none;horizontalStack=0;resizeParent=1;resizeParentMax=0;resizeLast=0;collapsible=1;marginBottom=0;whiteSpace=wrap;html=1;" parent="WIyWlLk6GJQsqaUBKTNV-1" vertex="1">
          <mxGeometry x="920" y="768" width="140" height="76" as="geometry" />
        </mxCell>
        <mxCell id="D3NuRizevuZZHWB4beF3-87" value="+Connector():bool&amp;nbsp;" style="text;strokeColor=none;fillColor=none;align=left;verticalAlign=top;spacingLeft=4;spacingRight=4;overflow=hidden;rotatable=0;points=[[0,0.5],[1,0.5]];portConstraint=eastwest;whiteSpace=wrap;html=1;" parent="D3NuRizevuZZHWB4beF3-86" vertex="1">
          <mxGeometry y="26" width="140" height="24" as="geometry" />
        </mxCell>
        <mxCell id="D3NuRizevuZZHWB4beF3-88" value="+ placeOrder():int&amp;nbsp;" style="text;strokeColor=none;fillColor=none;align=left;verticalAlign=top;spacingLeft=4;spacingRight=4;overflow=hidden;rotatable=0;points=[[0,0.5],[1,0.5]];portConstraint=eastwest;whiteSpace=wrap;html=1;" parent="D3NuRizevuZZHWB4beF3-86" vertex="1">
          <mxGeometry y="50" width="140" height="26" as="geometry" />
        </mxCell>
        <mxCell id="D3NuRizevuZZHWB4beF3-89" value="Transaction" style="swimlane;fontStyle=1;align=center;verticalAlign=top;childLayout=stackLayout;horizontal=1;startSize=26;horizontalStack=0;resizeParent=1;resizeParentMax=0;resizeLast=0;collapsible=1;marginBottom=0;whiteSpace=wrap;html=1;" parent="WIyWlLk6GJQsqaUBKTNV-1" vertex="1">
          <mxGeometry x="910" y="1060" width="160" height="164" as="geometry" />
        </mxCell>
        <mxCell id="D3NuRizevuZZHWB4beF3-90" value="+ date: String" style="text;strokeColor=none;fillColor=none;align=left;verticalAlign=top;spacingLeft=4;spacingRight=4;overflow=hidden;rotatable=0;points=[[0,0.5],[1,0.5]];portConstraint=eastwest;whiteSpace=wrap;html=1;" parent="D3NuRizevuZZHWB4beF3-89" vertex="1">
          <mxGeometry y="26" width="160" height="26" as="geometry" />
        </mxCell>
        <mxCell id="D3NuRizevuZZHWB4beF3-91" value="+ amount: double" style="text;strokeColor=none;fillColor=none;align=left;verticalAlign=top;spacingLeft=4;spacingRight=4;overflow=hidden;rotatable=0;points=[[0,0.5],[1,0.5]];portConstraint=eastwest;whiteSpace=wrap;html=1;" parent="D3NuRizevuZZHWB4beF3-89" vertex="1">
          <mxGeometry y="52" width="160" height="26" as="geometry" />
        </mxCell>
        <mxCell id="D3NuRizevuZZHWB4beF3-92" value="+ user_acc: int" style="text;strokeColor=none;fillColor=none;align=left;verticalAlign=top;spacingLeft=4;spacingRight=4;overflow=hidden;rotatable=0;points=[[0,0.5],[1,0.5]];portConstraint=eastwest;whiteSpace=wrap;html=1;" parent="D3NuRizevuZZHWB4beF3-89" vertex="1">
          <mxGeometry y="78" width="160" height="26" as="geometry" />
        </mxCell>
        <mxCell id="D3NuRizevuZZHWB4beF3-93" value="+ exch_acc: int" style="text;strokeColor=none;fillColor=none;align=left;verticalAlign=top;spacingLeft=4;spacingRight=4;overflow=hidden;rotatable=0;points=[[0,0.5],[1,0.5]];portConstraint=eastwest;whiteSpace=wrap;html=1;" parent="D3NuRizevuZZHWB4beF3-89" vertex="1">
          <mxGeometry y="104" width="160" height="26" as="geometry" />
        </mxCell>
        <mxCell id="D3NuRizevuZZHWB4beF3-94" value="" style="line;strokeWidth=1;fillColor=none;align=left;verticalAlign=middle;spacingTop=-1;spacingLeft=3;spacingRight=3;rotatable=0;labelPosition=right;points=[];portConstraint=eastwest;strokeColor=inherit;" parent="D3NuRizevuZZHWB4beF3-89" vertex="1">
          <mxGeometry y="130" width="160" height="8" as="geometry" />
        </mxCell>
        <mxCell id="D3NuRizevuZZHWB4beF3-95" value="+ initiateTransfer(): bool" style="text;strokeColor=none;fillColor=none;align=left;verticalAlign=top;spacingLeft=4;spacingRight=4;overflow=hidden;rotatable=0;points=[[0,0.5],[1,0.5]];portConstraint=eastwest;whiteSpace=wrap;html=1;" parent="D3NuRizevuZZHWB4beF3-89" vertex="1">
          <mxGeometry y="138" width="160" height="26" as="geometry" />
        </mxCell>
        <mxCell id="D3NuRizevuZZHWB4beF3-96" value="AccountStatement" style="swimlane;fontStyle=1;align=center;verticalAlign=top;childLayout=stackLayout;horizontal=1;startSize=26;horizontalStack=0;resizeParent=1;resizeParentMax=0;resizeLast=0;collapsible=1;marginBottom=0;whiteSpace=wrap;html=1;" parent="WIyWlLk6GJQsqaUBKTNV-1" vertex="1">
          <mxGeometry x="400" y="994" width="160" height="382" as="geometry" />
        </mxCell>
        <mxCell id="D3NuRizevuZZHWB4beF3-97" value="+ Stocks: String" style="text;strokeColor=none;fillColor=none;align=left;verticalAlign=top;spacingLeft=4;spacingRight=4;overflow=hidden;rotatable=0;points=[[0,0.5],[1,0.5]];portConstraint=eastwest;whiteSpace=wrap;html=1;" parent="D3NuRizevuZZHWB4beF3-96" vertex="1">
          <mxGeometry y="26" width="160" height="26" as="geometry" />
        </mxCell>
        <mxCell id="D3NuRizevuZZHWB4beF3-98" value="+ avgPrice:double" style="text;strokeColor=none;fillColor=none;align=left;verticalAlign=top;spacingLeft=4;spacingRight=4;overflow=hidden;rotatable=0;points=[[0,0.5],[1,0.5]];portConstraint=eastwest;whiteSpace=wrap;html=1;" parent="D3NuRizevuZZHWB4beF3-96" vertex="1">
          <mxGeometry y="52" width="160" height="26" as="geometry" />
        </mxCell>
        <mxCell id="D3NuRizevuZZHWB4beF3-99" value="+ present_value:double" style="text;strokeColor=none;fillColor=none;align=left;verticalAlign=top;spacingLeft=4;spacingRight=4;overflow=hidden;rotatable=0;points=[[0,0.5],[1,0.5]];portConstraint=eastwest;whiteSpace=wrap;html=1;" parent="D3NuRizevuZZHWB4beF3-96" vertex="1">
          <mxGeometry y="78" width="160" height="26" as="geometry" />
        </mxCell>
        <mxCell id="p17duBgMeD1hi4Uvc1wS-2" value="+ pL:double" style="text;strokeColor=none;fillColor=none;align=left;verticalAlign=top;spacingLeft=4;spacingRight=4;overflow=hidden;rotatable=0;points=[[0,0.5],[1,0.5]];portConstraint=eastwest;whiteSpace=wrap;html=1;" parent="D3NuRizevuZZHWB4beF3-96" vertex="1">
          <mxGeometry y="104" width="160" height="26" as="geometry" />
        </mxCell>
        <mxCell id="p17duBgMeD1hi4Uvc1wS-4" value="+ position:String" style="text;strokeColor=none;fillColor=none;align=left;verticalAlign=top;spacingLeft=4;spacingRight=4;overflow=hidden;rotatable=0;points=[[0,0.5],[1,0.5]];portConstraint=eastwest;whiteSpace=wrap;html=1;" parent="D3NuRizevuZZHWB4beF3-96" vertex="1">
          <mxGeometry y="130" width="160" height="26" as="geometry" />
        </mxCell>
        <mxCell id="p17duBgMeD1hi4Uvc1wS-3" value="+ date:Date" style="text;strokeColor=none;fillColor=none;align=left;verticalAlign=top;spacingLeft=4;spacingRight=4;overflow=hidden;rotatable=0;points=[[0,0.5],[1,0.5]];portConstraint=eastwest;whiteSpace=wrap;html=1;" parent="D3NuRizevuZZHWB4beF3-96" vertex="1">
          <mxGeometry y="156" width="160" height="26" as="geometry" />
        </mxCell>
        <mxCell id="D3NuRizevuZZHWB4beF3-100" value="+ transactionList:&lt;br&gt;List&amp;lt;AccountStatement&amp;gt;" style="text;strokeColor=none;fillColor=none;align=left;verticalAlign=top;spacingLeft=4;spacingRight=4;overflow=hidden;rotatable=0;points=[[0,0.5],[1,0.5]];portConstraint=eastwest;whiteSpace=wrap;html=1;" parent="D3NuRizevuZZHWB4beF3-96" vertex="1">
          <mxGeometry y="182" width="160" height="34" as="geometry" />
        </mxCell>
        <mxCell id="D3NuRizevuZZHWB4beF3-101" value="" style="line;strokeWidth=1;fillColor=none;align=left;verticalAlign=middle;spacingTop=-1;spacingLeft=3;spacingRight=3;rotatable=0;labelPosition=right;points=[];portConstraint=eastwest;strokeColor=inherit;" parent="D3NuRizevuZZHWB4beF3-96" vertex="1">
          <mxGeometry y="216" width="160" height="8" as="geometry" />
        </mxCell>
        <mxCell id="D3NuRizevuZZHWB4beF3-102" value="+ createStatement(): void" style="text;strokeColor=none;fillColor=none;align=left;verticalAlign=top;spacingLeft=4;spacingRight=4;overflow=hidden;rotatable=0;points=[[0,0.5],[1,0.5]];portConstraint=eastwest;whiteSpace=wrap;html=1;" parent="D3NuRizevuZZHWB4beF3-96" vertex="1">
          <mxGeometry y="224" width="160" height="32" as="geometry" />
        </mxCell>
        <mxCell id="D3NuRizevuZZHWB4beF3-103" value="+ getStatement(): AccountStatement" style="text;strokeColor=none;fillColor=none;align=left;verticalAlign=top;spacingLeft=4;spacingRight=4;overflow=hidden;rotatable=0;points=[[0,0.5],[1,0.5]];portConstraint=eastwest;whiteSpace=wrap;html=1;" parent="D3NuRizevuZZHWB4beF3-96" vertex="1">
          <mxGeometry y="256" width="160" height="42" as="geometry" />
        </mxCell>
        <mxCell id="D3NuRizevuZZHWB4beF3-104" value="+ getTaxStatement(): AccountStatement" style="text;strokeColor=none;fillColor=none;align=left;verticalAlign=top;spacingLeft=4;spacingRight=4;overflow=hidden;rotatable=0;points=[[0,0.5],[1,0.5]];portConstraint=eastwest;whiteSpace=wrap;html=1;" parent="D3NuRizevuZZHWB4beF3-96" vertex="1">
          <mxGeometry y="298" width="160" height="42" as="geometry" />
        </mxCell>
        <mxCell id="D3NuRizevuZZHWB4beF3-105" value="+ getStockPosition(): AccountStatement" style="text;strokeColor=none;fillColor=none;align=left;verticalAlign=top;spacingLeft=4;spacingRight=4;overflow=hidden;rotatable=0;points=[[0,0.5],[1,0.5]];portConstraint=eastwest;whiteSpace=wrap;html=1;" parent="D3NuRizevuZZHWB4beF3-96" vertex="1">
          <mxGeometry y="340" width="160" height="42" as="geometry" />
        </mxCell>
        <mxCell id="D3NuRizevuZZHWB4beF3-106" value="validates" style="endArrow=open;endSize=12;dashed=1;html=1;rounded=0;entryX=0.403;entryY=-0.098;entryDx=0;entryDy=0;entryPerimeter=0;exitX=-0.033;exitY=1.128;exitDx=0;exitDy=0;exitPerimeter=0;" parent="WIyWlLk6GJQsqaUBKTNV-1" source="D3NuRizevuZZHWB4beF3-68" target="D3NuRizevuZZHWB4beF3-84" edge="1">
          <mxGeometry width="160" relative="1" as="geometry">
            <mxPoint x="434" y="526" as="sourcePoint" />
            <mxPoint x="587" y="610" as="targetPoint" />
          </mxGeometry>
        </mxCell>
        <mxCell id="D3NuRizevuZZHWB4beF3-107" value="connects" style="endArrow=open;endSize=12;dashed=1;html=1;rounded=0;entryX=0;entryY=0;entryDx=0;entryDy=0;exitX=1;exitY=0.5;exitDx=0;exitDy=0;" parent="WIyWlLk6GJQsqaUBKTNV-1" source="D3NuRizevuZZHWB4beF3-68" target="D3NuRizevuZZHWB4beF3-86" edge="1">
          <mxGeometry width="160" relative="1" as="geometry">
            <mxPoint x="660" y="690" as="sourcePoint" />
            <mxPoint x="597" y="620" as="targetPoint" />
          </mxGeometry>
        </mxCell>
        <mxCell id="D3NuRizevuZZHWB4beF3-108" value="places" style="endArrow=open;endSize=12;dashed=1;html=1;rounded=0;exitX=0.475;exitY=1.35;exitDx=0;exitDy=0;exitPerimeter=0;entryX=0.5;entryY=0;entryDx=0;entryDy=0;" parent="WIyWlLk6GJQsqaUBKTNV-1" source="D3NuRizevuZZHWB4beF3-88" target="D3NuRizevuZZHWB4beF3-89" edge="1">
          <mxGeometry width="160" relative="1" as="geometry">
            <mxPoint x="773.5" y="830" as="sourcePoint" />
            <mxPoint x="847" y="930" as="targetPoint" />
          </mxGeometry>
        </mxCell>
        <mxCell id="D3NuRizevuZZHWB4beF3-109" value="insert" style="endArrow=open;endSize=12;dashed=1;html=1;rounded=0;entryX=1.007;entryY=-0.254;entryDx=0;entryDy=0;exitX=0;exitY=0.5;exitDx=0;exitDy=0;entryPerimeter=0;" parent="WIyWlLk6GJQsqaUBKTNV-1" source="D3NuRizevuZZHWB4beF3-92" target="D3NuRizevuZZHWB4beF3-103" edge="1">
          <mxGeometry width="160" relative="1" as="geometry">
            <mxPoint x="590" y="980" as="sourcePoint" />
            <mxPoint x="743" y="1064" as="targetPoint" />
          </mxGeometry>
        </mxCell>
        <mxCell id="D3NuRizevuZZHWB4beF3-111" value="&lt;b&gt;LimitOrder&lt;/b&gt;" style="swimlane;fontStyle=0;childLayout=stackLayout;horizontal=1;startSize=26;fillColor=none;horizontalStack=0;resizeParent=1;resizeParentMax=0;resizeLast=0;collapsible=1;marginBottom=0;whiteSpace=wrap;html=1;" parent="WIyWlLk6GJQsqaUBKTNV-1" vertex="1">
          <mxGeometry x="540" y="710" width="140" height="52" as="geometry" />
        </mxCell>
        <mxCell id="D3NuRizevuZZHWB4beF3-112" value="+ pricelimit: double" style="text;strokeColor=none;fillColor=none;align=left;verticalAlign=top;spacingLeft=4;spacingRight=4;overflow=hidden;rotatable=0;points=[[0,0.5],[1,0.5]];portConstraint=eastwest;whiteSpace=wrap;html=1;" parent="D3NuRizevuZZHWB4beF3-111" vertex="1">
          <mxGeometry y="26" width="140" height="26" as="geometry" />
        </mxCell>
        <mxCell id="D3NuRizevuZZHWB4beF3-113" value="&lt;b&gt;StopLossOrder&lt;/b&gt;" style="swimlane;fontStyle=0;childLayout=stackLayout;horizontal=1;startSize=26;fillColor=none;horizontalStack=0;resizeParent=1;resizeParentMax=0;resizeLast=0;collapsible=1;marginBottom=0;whiteSpace=wrap;html=1;" parent="WIyWlLk6GJQsqaUBKTNV-1" vertex="1">
          <mxGeometry x="540" y="780" width="140" height="52" as="geometry" />
        </mxCell>
        <mxCell id="D3NuRizevuZZHWB4beF3-114" value="+ pricelimit: double" style="text;strokeColor=none;fillColor=none;align=left;verticalAlign=top;spacingLeft=4;spacingRight=4;overflow=hidden;rotatable=0;points=[[0,0.5],[1,0.5]];portConstraint=eastwest;whiteSpace=wrap;html=1;" parent="D3NuRizevuZZHWB4beF3-113" vertex="1">
          <mxGeometry y="26" width="140" height="26" as="geometry" />
        </mxCell>
        <mxCell id="D3NuRizevuZZHWB4beF3-115" value="&lt;b&gt;StopLimitOrder&lt;/b&gt;" style="swimlane;fontStyle=0;childLayout=stackLayout;horizontal=1;startSize=26;fillColor=none;horizontalStack=0;resizeParent=1;resizeParentMax=0;resizeLast=0;collapsible=1;marginBottom=0;whiteSpace=wrap;html=1;" parent="WIyWlLk6GJQsqaUBKTNV-1" vertex="1">
          <mxGeometry x="540" y="860" width="140" height="52" as="geometry" />
        </mxCell>
        <mxCell id="D3NuRizevuZZHWB4beF3-116" value="+ pricelimit: double" style="text;strokeColor=none;fillColor=none;align=left;verticalAlign=top;spacingLeft=4;spacingRight=4;overflow=hidden;rotatable=0;points=[[0,0.5],[1,0.5]];portConstraint=eastwest;whiteSpace=wrap;html=1;" parent="D3NuRizevuZZHWB4beF3-115" vertex="1">
          <mxGeometry y="26" width="140" height="26" as="geometry" />
        </mxCell>
        <mxCell id="D3NuRizevuZZHWB4beF3-117" value="&lt;b&gt;MarketOrder&lt;/b&gt;" style="swimlane;fontStyle=0;childLayout=stackLayout;horizontal=1;startSize=26;fillColor=none;horizontalStack=0;resizeParent=1;resizeParentMax=0;resizeLast=0;collapsible=1;marginBottom=0;whiteSpace=wrap;html=1;" parent="WIyWlLk6GJQsqaUBKTNV-1" vertex="1">
          <mxGeometry x="540" y="930" width="140" height="30" as="geometry" />
        </mxCell>
        <mxCell id="D3NuRizevuZZHWB4beF3-118" value="Extends" style="endArrow=block;endSize=16;endFill=0;html=1;rounded=0;" parent="WIyWlLk6GJQsqaUBKTNV-1" edge="1">
          <mxGeometry width="160" relative="1" as="geometry">
            <mxPoint x="710" y="950" as="sourcePoint" />
            <mxPoint x="710" y="654" as="targetPoint" />
          </mxGeometry>
        </mxCell>
        <mxCell id="D3NuRizevuZZHWB4beF3-119" value="" style="line;strokeWidth=1;fillColor=none;align=left;verticalAlign=middle;spacingTop=-1;spacingLeft=3;spacingRight=3;rotatable=0;labelPosition=right;points=[];portConstraint=eastwest;strokeColor=inherit;" parent="WIyWlLk6GJQsqaUBKTNV-1" vertex="1">
          <mxGeometry x="680" y="745" width="30" height="8" as="geometry" />
        </mxCell>
        <mxCell id="D3NuRizevuZZHWB4beF3-120" value="" style="line;strokeWidth=1;fillColor=none;align=left;verticalAlign=middle;spacingTop=-1;spacingLeft=3;spacingRight=3;rotatable=0;labelPosition=right;points=[];portConstraint=eastwest;strokeColor=inherit;" parent="WIyWlLk6GJQsqaUBKTNV-1" vertex="1">
          <mxGeometry x="680" y="820" width="30" height="8" as="geometry" />
        </mxCell>
        <mxCell id="D3NuRizevuZZHWB4beF3-121" value="" style="line;strokeWidth=1;fillColor=none;align=left;verticalAlign=middle;spacingTop=-1;spacingLeft=3;spacingRight=3;rotatable=0;labelPosition=right;points=[];portConstraint=eastwest;strokeColor=inherit;" parent="WIyWlLk6GJQsqaUBKTNV-1" vertex="1">
          <mxGeometry x="680" y="900" width="30" height="8" as="geometry" />
        </mxCell>
        <mxCell id="D3NuRizevuZZHWB4beF3-129" value="" style="line;strokeWidth=1;fillColor=none;align=left;verticalAlign=middle;spacingTop=-1;spacingLeft=3;spacingRight=3;rotatable=0;labelPosition=right;points=[];portConstraint=eastwest;strokeColor=inherit;" parent="WIyWlLk6GJQsqaUBKTNV-1" vertex="1">
          <mxGeometry x="680" y="945" width="30" height="8" as="geometry" />
        </mxCell>
        <mxCell id="D3NuRizevuZZHWB4beF3-131" value="registers" style="endArrow=open;endSize=12;dashed=1;html=1;rounded=0;exitX=0.358;exitY=-0.014;exitDx=0;exitDy=0;exitPerimeter=0;" parent="WIyWlLk6GJQsqaUBKTNV-1" source="D3NuRizevuZZHWB4beF3-25" edge="1">
          <mxGeometry width="160" relative="1" as="geometry">
            <mxPoint x="150" y="290" as="sourcePoint" />
            <mxPoint x="311" y="230" as="targetPoint" />
          </mxGeometry>
        </mxCell>
      </root>
    </mxGraphModel>
  </diagram>
</mxfile>
